<svg width="15" height="15" viewBox="0 0 15 15" fill="none" xmlns="http://www.w3.org/2000/svg">
<path d="M7.5 0.0625C3.39277 0.0625 0.0625 3.39277 0.0625 7.5C0.0625 11.6072 3.39277 14.9375 7.5 14.9375C11.6072 14.9375 14.9375 11.6072 14.9375 7.5C14.9375 3.39277 11.6072 0.0625 7.5 0.0625ZM10.2725 10.5812C9.59844 11.2021 8.67871 11.5674 7.58135 11.5674C5.99258 11.5674 4.61797 10.656 3.94893 9.32783C3.67334 8.77832 3.51562 8.15742 3.51562 7.5C3.51562 6.84258 3.67334 6.22168 3.94893 5.67217C4.61797 4.34238 5.99258 3.43096 7.58135 3.43096C8.67705 3.43096 9.59678 3.83438 10.3023 4.49014L9.13691 5.65723C8.71523 5.25381 8.179 5.04961 7.58301 5.04961C6.52383 5.04961 5.62734 5.76514 5.30693 6.72637C5.22559 6.97041 5.1791 7.23105 5.1791 7.5C5.1791 7.76895 5.22559 8.02959 5.30693 8.27363C5.62734 9.23486 6.52383 9.95039 7.58135 9.95039C8.1292 9.95039 8.59404 9.80596 8.95762 9.56191C9.38926 9.27305 9.6748 8.84307 9.76943 8.3334H7.58135V6.75957H11.4113C11.4595 7.02686 11.4844 7.3041 11.4844 7.59131C11.4844 8.83145 11.0411 9.87236 10.2725 10.5812Z" fill="#E95258"/>
</svg>
