<svg width="20" height="20" viewBox="0 0 20 20" fill="none" xmlns="http://www.w3.org/2000/svg">
<path d="M10.0001 5.19298C7.33995 5.19298 5.19308 7.33986 5.19308 10C5.19308 12.6602 7.33995 14.807 10.0001 14.807C12.6603 14.807 14.8071 12.6602 14.8071 10C14.8071 7.33986 12.6603 5.19298 10.0001 5.19298ZM10.0001 13.1242C8.2798 13.1242 6.87589 11.7203 6.87589 10C6.87589 8.2797 8.2798 6.87579 10.0001 6.87579C11.7204 6.87579 13.1243 8.2797 13.1243 10C13.1243 11.7203 11.7204 13.1242 10.0001 13.1242ZM15.004 3.87579C14.3829 3.87579 13.8814 4.37736 13.8814 4.99845C13.8814 5.61954 14.3829 6.12111 15.004 6.12111C15.6251 6.12111 16.1267 5.62189 16.1267 4.99845C16.1269 4.85097 16.0979 4.7049 16.0416 4.56861C15.9852 4.43232 15.9026 4.30849 15.7983 4.2042C15.694 4.09992 15.5701 4.01723 15.4339 3.96088C15.2976 3.90452 15.1515 3.87561 15.004 3.87579ZM19.3704 10C19.3704 8.70626 19.3821 7.42423 19.3095 6.13283C19.2368 4.63283 18.8946 3.30158 17.7978 2.2047C16.6985 1.10548 15.3696 0.765639 13.8696 0.692982C12.5759 0.620326 11.2939 0.632045 10.0025 0.632045C8.7087 0.632045 7.42667 0.620326 6.13527 0.692982C4.63527 0.765639 3.30402 1.10783 2.20714 2.2047C1.10792 3.30392 0.76808 4.63283 0.695424 6.13283C0.622767 7.42658 0.634486 8.70861 0.634486 10C0.634486 11.2914 0.622767 12.5758 0.695424 13.8672C0.76808 15.3672 1.11027 16.6985 2.20714 17.7953C3.30636 18.8945 4.63527 19.2344 6.13527 19.307C7.42902 19.3797 8.71105 19.368 10.0025 19.368C11.2962 19.368 12.5782 19.3797 13.8696 19.307C15.3696 19.2344 16.7009 18.8922 17.7978 17.7953C18.897 16.6961 19.2368 15.3672 19.3095 13.8672C19.3845 12.5758 19.3704 11.2938 19.3704 10ZM17.3079 15.5266C17.1368 15.9531 16.9306 16.2719 16.6001 16.6C16.2696 16.9305 15.9532 17.1367 15.5267 17.3078C14.2939 17.7977 11.3665 17.6875 10.0001 17.6875C8.6337 17.6875 5.70402 17.7977 4.47121 17.3102C4.04464 17.1391 3.72589 16.9328 3.39777 16.6024C3.0673 16.2719 2.86105 15.9555 2.68996 15.5289C2.20246 14.2938 2.31261 11.3664 2.31261 10C2.31261 8.63361 2.20246 5.70392 2.68996 4.47111C2.86105 4.04454 3.0673 3.72579 3.39777 3.39767C3.72824 3.06954 4.04464 2.86095 4.47121 2.68986C5.70402 2.20236 8.6337 2.31251 10.0001 2.31251C11.3665 2.31251 14.2962 2.20236 15.529 2.68986C15.9556 2.86095 16.2743 3.0672 16.6025 3.39767C16.9329 3.72814 17.1392 4.04454 17.3103 4.47111C17.7978 5.70392 17.6876 8.63361 17.6876 10C17.6876 11.3664 17.7978 14.2938 17.3079 15.5266Z" fill="white"/>
</svg>
