<svg width="18" height="18" viewBox="0 0 18 18" fill="none" xmlns="http://www.w3.org/2000/svg">
<path d="M16.2037 12.25L13.6637 11.96C13.365 11.9249 13.0623 11.958 12.7782 12.0567C12.4942 12.1554 12.2362 12.3173 12.0237 12.53L10.1837 14.37C7.34486 12.9262 5.03745 10.6188 3.59367 7.78L5.44367 5.93C5.87367 5.5 6.08367 4.9 6.01367 4.29L5.72367 1.77C5.66698 1.28218 5.43287 0.832237 5.06591 0.505849C4.69895 0.17946 4.22478 -0.000582255 3.73367 1.41469e-06H2.00367C0.873674 1.41469e-06 -0.0663265 0.940001 0.00367348 2.07C0.533673 10.61 7.36367 17.43 15.8937 17.96C17.0237 18.03 17.9637 17.09 17.9637 15.96V14.23C17.9737 13.22 17.2137 12.37 16.2037 12.25Z" fill="white"/>
</svg>
