<svg width="24" height="24" viewBox="0 0 24 24" fill="none" xmlns="http://www.w3.org/2000/svg">
<path fill-rule="evenodd" clip-rule="evenodd" d="M0.439941 12C0.439941 18.392 5.60794 23.56 11.9999 23.56C18.3919 23.56 23.5599 18.392 23.5599 12C23.5599 5.60799 18.3919 0.439995 11.9999 0.439995C5.60794 0.439995 0.439941 5.60799 0.439941 12ZM1.79994 12C1.79994 6.35599 6.35594 1.79999 11.9999 1.79999C17.6439 1.79999 22.1999 6.35599 22.1999 12C22.1999 17.644 17.6439 22.2 11.9999 22.2C6.35594 22.2 1.79994 17.644 1.79994 12ZM18.7999 12L8.59989 6.08403V17.916L18.7999 12ZM9.95989 15.536V8.39603L16.0799 11.932L9.95989 15.536Z" fill="#F9F9F9"/>
</svg>
