<svg width="9" height="5" viewBox="0 0 9 5" fill="none" xmlns="http://www.w3.org/2000/svg">
<path d="M1.06647 4.51546C0.948939 4.63183 0.790231 4.69711 0.624839 4.69711C0.459447 4.69711 0.300738 4.63183 0.183211 4.51546C0.125185 4.45831 0.0791049 4.3902 0.0476516 4.31508C0.0161983 4.23996 0 4.15933 0 4.07789C0 3.99645 0.0161983 3.91583 0.0476516 3.84071C0.0791049 3.76559 0.125185 3.69747 0.183211 3.64033L3.71262 0.181362C3.83042 0.0651533 3.98923 0 4.1547 0C4.32017 0 4.47899 0.0651533 4.59678 0.181362L8.1262 3.64033C8.18422 3.69747 8.2303 3.76559 8.26175 3.84071C8.29321 3.91583 8.30941 3.99645 8.30941 4.07789C8.30941 4.15933 8.29321 4.23996 8.26175 4.31508C8.2303 4.3902 8.18422 4.45831 8.1262 4.51546C8.0084 4.63167 7.84959 4.69682 7.68412 4.69682C7.51865 4.69682 7.35983 4.63167 7.24204 4.51546L4.15335 1.67874L1.06647 4.51546Z" fill="#F9F9F9"/>
</svg>
