<svg width="24" height="24" viewBox="0 0 24 24" fill="none" xmlns="http://www.w3.org/2000/svg">
<path fill-rule="evenodd" clip-rule="evenodd" d="M19.0859 4.90685C18.1634 3.98268 17.0658 3.24988 15.8567 2.75091C14.6476 2.25194 13.3511 1.99672 12.0421 2.00003C6.55351 2.00003 2.08541 6.44582 2.08319 11.9106C2.08319 13.6571 2.54132 15.3617 3.41209 16.8653L2 22L7.27897 20.6211C8.73919 21.4122 10.3751 21.8271 12.0377 21.8278H12.0421C17.5296 21.8278 21.9977 17.382 22 11.9172C22.0037 10.615 21.7481 9.32503 21.248 8.12175C20.7478 6.91847 20.013 5.82578 19.0859 4.90685ZM12.0421 20.1552H12.0388C10.5563 20.1554 9.10108 19.7584 7.82583 19.006L7.52412 18.8271L4.39156 19.6452L5.22684 16.6059L5.0305 16.2946C4.20165 14.9813 3.76287 13.4615 3.76483 11.9106C3.76705 7.36876 7.47974 3.67369 12.0455 3.67369C13.1328 3.67128 14.2098 3.88354 15.2142 4.29816C16.2186 4.71279 17.1304 5.32156 17.8968 6.08923C18.6673 6.85324 19.278 7.76166 19.6937 8.762C20.1093 9.76233 20.3216 10.8347 20.3183 11.9172C20.3161 16.4591 16.6034 20.1552 12.0421 20.1552ZM16.5823 13.985C16.3327 13.8602 15.1103 13.2619 14.8818 13.1791C14.6544 13.0963 14.4892 13.0554 14.3228 13.3027C14.1564 13.55 13.6794 14.1075 13.5341 14.2731C13.3888 14.4387 13.2435 14.4586 12.995 14.335C12.7465 14.2113 11.9445 13.9497 10.9939 13.1062C10.254 12.4493 9.75484 11.639 9.60952 11.3906C9.46421 11.1422 9.59399 11.0086 9.71934 10.885C9.83138 10.7746 9.96782 10.5957 10.0921 10.4511C10.2163 10.3065 10.2573 10.2038 10.3405 10.0382C10.4237 9.87262 10.3827 9.72799 10.3195 9.60435C10.2573 9.4796 9.75927 8.26079 9.55184 7.76509C9.35107 7.28485 9.14585 7.34889 8.99278 7.34226C8.83424 7.33581 8.67557 7.33286 8.5169 7.33343C8.39073 7.33663 8.26658 7.36574 8.15225 7.41893C8.03791 7.47213 7.93584 7.54826 7.85246 7.64255C7.62395 7.89095 6.98169 8.48931 6.98169 9.70812C6.98169 10.9269 7.87353 12.1049 7.99777 12.2705C8.12201 12.4361 9.75262 14.9366 12.2485 16.0097C12.843 16.2647 13.3067 16.4171 13.6672 16.5319C14.2629 16.7207 14.8053 16.6931 15.2346 16.6302C15.7127 16.5595 16.7066 16.0318 16.914 15.4533C17.1214 14.8748 17.1214 14.3791 17.0593 14.2753C16.9972 14.1716 16.8297 14.1086 16.5823 13.985Z" fill="white"/>
</svg>
