<svg width="24" height="24" viewBox="0 0 24 24" fill="none" xmlns="http://www.w3.org/2000/svg">
<path d="M21.7891 1.48003L22.3791 2.07003C23.1921 2.88403 23.0691 4.32703 22.1021 5.29303L9.93505 17.46L5.99305 18.902C5.49805 19.084 5.01605 18.848 4.91805 18.377C4.88493 18.2062 4.90053 18.0294 4.96305 17.867L6.43305 13.891L18.5661 1.75703C19.5331 0.791025 20.9761 0.667025 21.7891 1.48103V1.48003ZM9.40405 2.69003C9.53537 2.69003 9.66541 2.71589 9.78674 2.76615C9.90806 2.8164 10.0183 2.89006 10.1112 2.98292C10.204 3.07578 10.2777 3.18602 10.3279 3.30734C10.3782 3.42867 10.4041 3.5587 10.4041 3.69003C10.4041 3.82135 10.3782 3.95138 10.3279 4.07271C10.2777 4.19403 10.204 4.30427 10.1112 4.39713C10.0183 4.48999 9.90806 4.56365 9.78674 4.6139C9.66541 4.66416 9.53537 4.69003 9.40405 4.69003H5.40405C4.87362 4.69003 4.36491 4.90074 3.98984 5.27581C3.61477 5.65088 3.40405 6.15959 3.40405 6.69003V18.69C3.40405 19.2205 3.61477 19.7292 3.98984 20.1042C4.36491 20.4793 4.87362 20.69 5.40405 20.69H17.4041C17.9345 20.69 18.4432 20.4793 18.8183 20.1042C19.1933 19.7292 19.4041 19.2205 19.4041 18.69V14.69C19.4041 14.4248 19.5094 14.1705 19.6969 13.9829C19.8845 13.7954 20.1388 13.69 20.4041 13.69C20.6693 13.69 20.9236 13.7954 21.1112 13.9829C21.2987 14.1705 21.4041 14.4248 21.4041 14.69V18.69C21.4041 19.7509 20.9826 20.7683 20.2325 21.5185C19.4823 22.2686 18.4649 22.69 17.4041 22.69H5.40405C4.34319 22.69 3.32577 22.2686 2.57563 21.5185C1.82548 20.7683 1.40405 19.7509 1.40405 18.69V6.69003C1.40405 5.62916 1.82548 4.61174 2.57563 3.8616C3.32577 3.11145 4.34319 2.69003 5.40405 2.69003H9.40405Z" fill="white"/>
</svg>
