<svg width="17" height="18" viewBox="0 0 17 18" fill="none" xmlns="http://www.w3.org/2000/svg">
<path d="M5.13542 1.62H4.95833C5.05573 1.62 5.13542 1.539 5.13542 1.44V1.62H11.8646V1.44C11.8646 1.539 11.9443 1.62 12.0417 1.62H11.8646V3.24H13.4583V1.44C13.4583 0.64575 12.823 0 12.0417 0H4.95833C4.17695 0 3.54167 0.64575 3.54167 1.44V3.24H5.13542V1.62ZM16.2917 3.24H0.708333C0.316536 3.24 0 3.56175 0 3.96V4.68C0 4.779 0.0796875 4.86 0.177083 4.86H1.51406L2.06081 16.6275C2.09622 17.3948 2.72044 18 3.47526 18H13.5247C14.2818 18 14.9038 17.397 14.9392 16.6275L15.4859 4.86H16.8229C16.9203 4.86 17 4.779 17 4.68V3.96C17 3.56175 16.6835 3.24 16.2917 3.24ZM13.3543 16.38H3.6457L3.11003 4.86H13.89L13.3543 16.38Z" fill="white"/>
</svg>
