<svg width="109" height="109" viewBox="0 0 109 109" fill="none" xmlns="http://www.w3.org/2000/svg">
<path d="M95.7384 31.7943C94.9536 30.4346 93.8299 29.3016 92.4767 28.5056C91.1236 27.7096 89.5872 27.2779 88.0175 27.2527H29.8842L27.25 16.9885C26.9839 15.9977 26.3901 15.1262 25.5654 14.5159C24.7407 13.9056 23.7337 13.5925 22.7084 13.6277H13.625C12.4205 13.6277 11.2653 14.1062 10.4136 14.9579C9.56187 15.8096 9.08337 16.9648 9.08337 18.1693C9.08337 19.3739 9.56187 20.529 10.4136 21.3808C11.2653 22.2325 12.4205 22.711 13.625 22.711H19.2567L31.7917 69.3085C32.0578 70.2993 32.6516 71.1708 33.4763 71.7811C34.301 72.3914 35.308 72.7045 36.3334 72.6693H77.2084C78.0471 72.6668 78.8687 72.4321 79.5821 71.9912C80.2956 71.5503 80.873 70.9204 81.2505 70.1714L96.1471 40.3781C96.7928 39.0247 97.0934 37.5326 97.022 36.0348C96.9507 34.537 96.5097 33.0802 95.7384 31.7943ZM74.3925 63.586H39.785L32.3821 36.336H88.0175L74.3925 63.586Z" fill="#800A7A"/>
<path d="M34.0625 95.375C37.8249 95.375 40.875 92.3249 40.875 88.5625C40.875 84.8001 37.8249 81.75 34.0625 81.75C30.3001 81.75 27.25 84.8001 27.25 88.5625C27.25 92.3249 30.3001 95.375 34.0625 95.375Z" fill="#800A7A"/>
<path d="M79.4792 95.375C83.2417 95.375 86.2917 92.3249 86.2917 88.5625C86.2917 84.8001 83.2417 81.75 79.4792 81.75C75.7168 81.75 72.6667 84.8001 72.6667 88.5625C72.6667 92.3249 75.7168 95.375 79.4792 95.375Z" fill="#800A7A"/>
</svg>
