<svg width="24" height="24" viewBox="0 0 24 24" fill="none" xmlns="http://www.w3.org/2000/svg">
<g opacity="0.7">
<path fill-rule="evenodd" clip-rule="evenodd" d="M16.122 2.06C15.056 2.01 14.717 2 12 2C9.283 2 8.944 2.013 7.878 2.06C6.812 2.11 6.088 2.277 5.45 2.525C4.78243 2.77573 4.17767 3.16923 3.678 3.678C3.1688 4.17732 2.77524 4.78218 2.525 5.45C2.277 6.088 2.11 6.812 2.06 7.878C2.01 8.944 2 9.283 2 12C2 14.717 2.013 15.056 2.06 16.122C2.11 17.187 2.277 17.913 2.525 18.55C2.77593 19.2175 3.16941 19.8222 3.678 20.322C4.17753 20.8309 4.78233 21.2245 5.45 21.475C6.088 21.722 6.813 21.89 7.878 21.94C8.944 21.99 9.283 22 12 22C14.717 22 15.056 21.987 16.122 21.94C17.187 21.89 17.913 21.722 18.55 21.475C19.2173 21.2238 19.822 20.8303 20.322 20.322C20.8311 19.8226 21.2247 19.2178 21.475 18.55C21.722 17.912 21.89 17.187 21.94 16.122C21.99 15.056 22 14.717 22 12C22 9.283 21.987 8.944 21.94 7.878C21.89 6.813 21.722 6.087 21.475 5.45C21.224 4.78259 20.8305 4.1779 20.322 3.678C19.766 3.123 19.21 2.779 18.55 2.525C17.912 2.277 17.187 2.11 16.122 2.06ZM7 12C7 9.23858 9.23858 7 12 7C14.7614 7 17 9.23858 17 12C17 14.7614 14.7614 17 12 17C9.23858 17 7 14.7614 7 12ZM18.5 6.75C18.5 6.05964 17.9404 5.5 17.25 5.5C16.5596 5.5 16 6.05964 16 6.75C16 7.44036 16.5596 8 17.25 8C17.9404 8 18.5 7.44036 18.5 6.75ZM15 12C15 10.3431 13.6569 9 12 9C10.3431 9 9 10.3431 9 12C9 13.6569 10.3431 15 12 15C13.6569 15 15 13.6569 15 12Z" fill="#222124"/>
</g>
</svg>
