<svg width="24" height="24" viewBox="0 0 24 24" fill="none" xmlns="http://www.w3.org/2000/svg">
<path fill-rule="evenodd" clip-rule="evenodd" d="M13.318 14.634C11.6695 13.6957 10.3043 12.3305 9.366 10.682L10.604 9.798C11.016 9.50378 11.1431 8.94807 10.9 8.504C10.1271 7.08968 9.66222 5.52779 9.536 3.921C9.49479 3.40093 9.0607 2.99993 8.539 3H4.077C3.56413 2.99989 3.13431 3.3878 3.082 3.898C3.027 4.428 3 4.962 3 5.5C3 14.06 9.94 21 18.5 21C19.038 21 19.572 20.973 20.102 20.918C20.6122 20.8657 21.0001 20.4359 21 19.923V15.461C21.0001 14.9393 20.5991 14.5052 20.079 14.464C18.4722 14.3378 16.9103 13.8729 15.496 13.1C15.0519 12.8569 14.4962 12.984 14.202 13.396L13.318 14.634ZM8.744 8.668L6.844 10.025C7.05628 10.5713 7.30691 11.102 7.594 11.613L7.627 11.671C8.74328 13.6324 10.3676 15.2567 12.329 16.373L12.387 16.406C12.898 16.6931 13.4287 16.9437 13.975 17.156L15.332 15.256C16.4959 15.7952 17.7312 16.1646 19 16.353V18.99C18.834 18.997 18.667 19 18.5 19C11.044 19 5 12.956 5.001 5.5C5.001 5.333 5.004 5.166 5.01 5H7.647C7.83535 6.26884 8.20478 7.50409 8.744 8.668Z" fill="#F1B301"/>
</svg>
