<svg width="24" height="24" viewBox="0 0 24 24" fill="none" xmlns="http://www.w3.org/2000/svg">
<g opacity="0.7">
<path fill-rule="evenodd" clip-rule="evenodd" d="M2 12C2 17.523 6.477 22 12 22C17.523 22 22 17.523 22 12C22 6.477 17.523 2 12 2C6.477 2 2 6.477 2 12ZM8.903 13.163L8.89 13.17V13.171L6.393 12.391C5.853 12.226 5.849 11.854 6.513 11.588L16.246 7.828C16.811 7.596 17.131 7.888 16.948 8.616L15.291 16.438C15.175 16.994 14.84 17.127 14.374 16.87L11.824 14.982L10.636 16.13C10.6315 16.1343 10.6271 16.1385 10.6227 16.1427C10.5057 16.2552 10.4072 16.3499 10.226 16.374C10.039 16.4 9.885 16.344 9.773 16.033L8.903 13.163Z" fill="#222124"/>
</g>
</svg>
